<svg xmlns="http://www.w3.org/2000/svg" viewBox="0 0 100 100"><rect width="100" height="100" rx="24" fill="#14161B"/><rect x=".5" y=".5" width="99" height="99" rx="23.5" fill="none" stroke="#fff" stroke-opacity=".08"/><path d="M25 29h12l5-7h17l5 7h11a9 9 0 0 1 9 9v32a9 9 0 0 1-9 9H25a9 9 0 0 1-9-9V38a9 9 0 0 1 9-9Z" fill="none" stroke="#43DCC7" stroke-width="4"/><path d="M33 69 45 40m22 29L55 40" stroke="#43DCC7" stroke-width="5" stroke-linecap="round"/><path d="M50 44v5m0 8v8" stroke="#fff" stroke-width="3" stroke-linecap="round"/><circle cx="73" cy="39" r="3" fill="#FF8A49"/></svg>